<svg xmlns="http://www.w3.org/2000/svg" width="480" height="515" class="">
  <defs>
    <style/>
  </defs>
  <style>
    svg{font-family:-apple-system,BlinkMacSystemFont,Segoe UI,Helvetica,Arial,sans-serif,Apple Color Emoji,Segoe UI Emoji;font-size:14px;color:#777}h1,h2,h3{margin:8px 0 2px;padding:0;color:#0366d6;font-weight:400}h1 svg,h2 svg,h3 svg{fill:currentColor}h2{font-size:16px}h3{font-size:14px}section&gt;.field{margin-left:5px;margin-right:5px}.field{display:flex;align-items:center;margin-bottom:2px;white-space:nowrap}.field svg{margin:0 8px;fill:#959da5;flex-shrink:0}.row{display:flex;flex-wrap:wrap}.row section{flex:1}.repo-badges .badge.language::before{content:"";display:inline-block;width:10px;height:10px;margin-right:5px;border-radius:50%;background-color:var(--lang-color,#959da5)}.column{display:flex;flex-direction:column;align-items:center}.fill-width{width:100%}.margin-bottom{margin-bottom:16px}@keyframes animation-gauge{from{stroke-dasharray:0 329}}.chart{padding:0 8px}@keyframes animation-rainbow{0%,100%{color:#7f00ff;fill:#7f00ff}14%{color:#a933ff;fill:#a933ff}29%{color:#007fff;fill:#007fff}43%{color:#00ff7f;fill:#00ff7f}57%{color:#ff0;fill:#ff0}71%{color:#ff7f00;fill:#ff7f00}86%{color:red;fill:red}}:root{--color-calendar-graph-day-bg:#ebedf0;--color-calendar-graph-day-border:rgba(27,31,35,0.06);--color-calendar-graph-day-L1-bg:#9be9a8;--color-calendar-graph-day-L2-bg:#40c463;--color-calendar-graph-day-L3-bg:#30a14e;--color-calendar-graph-day-L4-bg:#216e39;--color-calendar-halloween-graph-day-L1-bg:#ffee4a;--color-calendar-halloween-graph-day-L2-bg:#ffc501;--color-calendar-halloween-graph-day-L3-bg:#fe9600;--color-calendar-halloween-graph-day-L4-bg:#03001c;--color-calendar-winter-graph-day-L1-bg:#0a3069;--color-calendar-winter-graph-day-L2-bg:#0969da;--color-calendar-winter-graph-day-L3-bg:#54aeff;--color-calendar-winter-graph-day-L4-bg:#b6e3ff;--color-calendar-graph-day-L4-border:rgba(27,31,35,0.06);--color-calendar-graph-day-L3-border:rgba(27,31,35,0.06);--color-calendar-graph-day-L2-border:rgba(27,31,35,0.06);--color-calendar-graph-day-L1-border:rgba(27,31,35,0.06)}#metrics-end{width:100%}
  </style>
  <style/>
  <foreignObject x="0" y="0" width="100%" height="100%">
    <div xmlns="http://www.w3.org/1999/xhtml" xmlns:xlink="http://www.w3.org/1999/xlink" class="items-wrapper">
      <div class="plugin-stargazers" data-plugin="stargazers">
        <section data-section="stargazers">
          <h2 class="field">
            <svg xmlns="http://www.w3.org/2000/svg" viewBox="0 0 16 16" width="16" height="16" aria-hidden="true">
              <path fill-rule="evenodd" d="M8 .25a.75.75 0 01.673.418l1.882 3.815 4.21.612a.75.75 0 01.416 1.279l-3.046 2.97.719 4.192a.75.75 0 01-1.088.791L8 12.347l-3.766 1.98a.75.75 0 01-1.088-.79l.72-4.194L.818 6.374a.75.75 0 01.416-1.28l4.21-.611L7.327.668A.75.75 0 018 .25zm0 2.445L6.615 5.5a.75.75 0 01-.564.41l-3.097.45 2.24 2.184a.75.75 0 01.216.664l-.528 3.084 2.769-1.456a.75.75 0 01.698 0l2.77 1.456-.53-3.084a.75.75 0 01.216-.664l2.24-2.183-3.096-.45a.75.75 0 01-.564-.41L8 2.694v.001z"/>
            </svg>
            Stargazers
          </h2>
          <div class="row margin-bottom">
            <section class="column chart fill-width">
              <h3>
                Total stargazers
              </h3>
              <svg xmlns="http://www.w3.org/2000/svg" class="stargazers-graph" width="480" height="180" viewBox="0 0 480 180" role="img" aria-label="Total stargazers graph">
                <line x1="32.0" y1="12.0" x2="32.0" y2="126.0" stroke="rgba(127, 127, 127, .4)" stroke-dasharray="2,2"/>
                <line x1="32.0" y1="126.0" x2="466.0" y2="126.0" stroke="rgba(127, 127, 127, .8)"/>
                <text x="28.0" y="16.0" fill="rgba(127, 127, 127, .8)" text-anchor="end" font-size="10">
                  1605
                </text>
                <text x="28.0" y="126.0" fill="rgba(127, 127, 127, .8)" text-anchor="end" font-size="10">
                  1545
                </text>
                <path d="M32.0,126.0L65.4,114.6L98.8,108.9L132.2,95.6L165.5,84.2L198.9,76.6L232.3,69.0L265.7,61.4L299.1,57.6L332.5,50.0L365.8,32.9L399.2,21.5L432.6,12.0L466.0,12.0L466.0,126.0L432.6,126.0L399.2,126.0L365.8,126.0L332.5,126.0L299.1,126.0L265.7,126.0L232.3,126.0L198.9,126.0L165.5,126.0L132.2,126.0L98.8,126.0L65.4,126.0L32.0,126.0Z" fill="rgba(88, 166, 255, .1)"/>
                <path d="M32.0,126.0L65.4,114.6L98.8,108.9L132.2,95.6L165.5,84.2L198.9,76.6L232.3,69.0L265.7,61.4L299.1,57.6L332.5,50.0L365.8,32.9L399.2,21.5L432.6,12.0L466.0,12.0" fill="transparent" stroke="#87ceeb" stroke-width="2"/>
                <circle cx="32.0" cy="126.0" r="2" fill="#106cbc"/>
                <text x="32.0" y="120.0" fill="rgba(127, 127, 127, .8)" text-anchor="start" font-size="10">
                  1545
                </text>
                <circle cx="65.4" cy="114.6" r="2" fill="#106cbc"/>
                <circle cx="98.8" cy="108.9" r="2" fill="#106cbc"/>
                <text x="98.8" y="102.9" fill="rgba(127, 127, 127, .8)" text-anchor="middle" font-size="10">
                  1554
                </text>
                <circle cx="132.2" cy="95.6" r="2" fill="#106cbc"/>
                <circle cx="165.5" cy="84.2" r="2" fill="#106cbc"/>
                <text x="165.5" y="78.2" fill="rgba(127, 127, 127, .8)" text-anchor="middle" font-size="10">
                  1567
                </text>
                <circle cx="198.9" cy="76.6" r="2" fill="#106cbc"/>
                <circle cx="232.3" cy="69.0" r="2" fill="#106cbc"/>
                <text x="232.3" y="63.0" fill="rgba(127, 127, 127, .8)" text-anchor="middle" font-size="10">
                  1575
                </text>
                <circle cx="265.7" cy="61.4" r="2" fill="#106cbc"/>
                <circle cx="299.1" cy="57.6" r="2" fill="#106cbc"/>
                <text x="299.1" y="51.6" fill="rgba(127, 127, 127, .8)" text-anchor="middle" font-size="10">
                  1581
                </text>
                <circle cx="332.5" cy="50.0" r="2" fill="#106cbc"/>
                <circle cx="365.8" cy="32.9" r="2" fill="#106cbc"/>
                <text x="365.8" y="26.9" fill="rgba(127, 127, 127, .8)" text-anchor="middle" font-size="10">
                  1594
                </text>
                <circle cx="399.2" cy="21.5" r="2" fill="#106cbc"/>
                <circle cx="432.6" cy="12.0" r="2" fill="#106cbc"/>
                <text x="432.6" y="6.0" fill="rgba(127, 127, 127, .8)" text-anchor="middle" font-size="10">
                  1605
                </text>
                <circle cx="466.0" cy="12.0" r="2" fill="#106cbc"/>
                <text x="466.0" y="6.0" fill="rgba(127, 127, 127, .8)" text-anchor="end" font-size="10">
                  1605
                </text>
                <text x="32.0" y="138.0" fill="rgba(127, 127, 127, .8)" text-anchor="end" font-size="10" transform="rotate(-45 32.0 138.0)">
                  May 30
                </text>
                <text x="98.8" y="138.0" fill="rgba(127, 127, 127, .8)" text-anchor="end" font-size="10" transform="rotate(-45 98.8 138.0)">
                  Jun 1
                </text>
                <text x="165.5" y="138.0" fill="rgba(127, 127, 127, .8)" text-anchor="end" font-size="10" transform="rotate(-45 165.5 138.0)">
                  Jun 3
                </text>
                <text x="232.3" y="138.0" fill="rgba(127, 127, 127, .8)" text-anchor="end" font-size="10" transform="rotate(-45 232.3 138.0)">
                  Jun 5
                </text>
                <text x="299.1" y="138.0" fill="rgba(127, 127, 127, .8)" text-anchor="end" font-size="10" transform="rotate(-45 299.1 138.0)">
                  Jun 7
                </text>
                <text x="365.8" y="138.0" fill="rgba(127, 127, 127, .8)" text-anchor="end" font-size="10" transform="rotate(-45 365.8 138.0)">
                  Jun 9
                </text>
                <text x="432.6" y="138.0" fill="rgba(127, 127, 127, .8)" text-anchor="end" font-size="10" transform="rotate(-45 432.6 138.0)">
                  Jun 11
                </text>
                <text x="466.0" y="138.0" fill="rgba(127, 127, 127, .8)" text-anchor="end" font-size="10" transform="rotate(-45 466.0 138.0)">
                  Jun 12
                </text>
              </svg>
              <h3>
                New stargazers per day
              </h3>
              <svg xmlns="http://www.w3.org/2000/svg" class="stargazers-graph" width="480" height="180" viewBox="0 0 480 180" role="img" aria-label="New stargazers per day graph">
                <line x1="32.0" y1="12.0" x2="32.0" y2="126.0" stroke="rgba(127, 127, 127, .4)" stroke-dasharray="2,2"/>
                <line x1="32.0" y1="126.0" x2="466.0" y2="126.0" stroke="rgba(127, 127, 127, .8)"/>
                <text x="28.0" y="16.0" fill="rgba(127, 127, 127, .8)" text-anchor="end" font-size="10">
                  9
                </text>
                <text x="28.0" y="126.0" fill="rgba(127, 127, 127, .8)" text-anchor="end" font-size="10">
                  0
                </text>
                <path d="M32.0,75.3L65.4,50.0L98.8,88.0L132.2,37.3L165.5,50.0L198.9,75.3L232.3,75.3L265.7,75.3L299.1,100.7L332.5,75.3L365.8,12.0L399.2,50.0L432.6,62.7L466.0,126.0L466.0,126.0L432.6,126.0L399.2,126.0L365.8,126.0L332.5,126.0L299.1,126.0L265.7,126.0L232.3,126.0L198.9,126.0L165.5,126.0L132.2,126.0L98.8,126.0L65.4,126.0L32.0,126.0Z" fill="rgba(88, 166, 255, .1)"/>
                <path d="M32.0,75.3L65.4,50.0L98.8,88.0L132.2,37.3L165.5,50.0L198.9,75.3L232.3,75.3L265.7,75.3L299.1,100.7L332.5,75.3L365.8,12.0L399.2,50.0L432.6,62.7L466.0,126.0" fill="transparent" stroke="#87ceeb" stroke-width="2"/>
                <circle cx="32.0" cy="75.3" r="2" fill="#106cbc"/>
                <text x="32.0" y="69.3" fill="rgba(127, 127, 127, .8)" text-anchor="start" font-size="10">
                  4
                </text>
                <circle cx="65.4" cy="50.0" r="2" fill="#106cbc"/>
                <circle cx="98.8" cy="88.0" r="2" fill="#106cbc"/>
                <text x="98.8" y="82.0" fill="rgba(127, 127, 127, .8)" text-anchor="middle" font-size="10">
                  3
                </text>
                <circle cx="132.2" cy="37.3" r="2" fill="#106cbc"/>
                <circle cx="165.5" cy="50.0" r="2" fill="#106cbc"/>
                <text x="165.5" y="44.0" fill="rgba(127, 127, 127, .8)" text-anchor="middle" font-size="10">
                  6
                </text>
                <circle cx="198.9" cy="75.3" r="2" fill="#106cbc"/>
                <circle cx="232.3" cy="75.3" r="2" fill="#106cbc"/>
                <text x="232.3" y="69.3" fill="rgba(127, 127, 127, .8)" text-anchor="middle" font-size="10">
                  4
                </text>
                <circle cx="265.7" cy="75.3" r="2" fill="#106cbc"/>
                <circle cx="299.1" cy="100.7" r="2" fill="#106cbc"/>
                <text x="299.1" y="94.7" fill="rgba(127, 127, 127, .8)" text-anchor="middle" font-size="10">
                  2
                </text>
                <circle cx="332.5" cy="75.3" r="2" fill="#106cbc"/>
                <circle cx="365.8" cy="12.0" r="2" fill="#106cbc"/>
                <text x="365.8" y="6.0" fill="rgba(127, 127, 127, .8)" text-anchor="middle" font-size="10">
                  9
                </text>
                <circle cx="399.2" cy="50.0" r="2" fill="#106cbc"/>
                <circle cx="432.6" cy="62.7" r="2" fill="#106cbc"/>
                <text x="432.6" y="56.7" fill="rgba(127, 127, 127, .8)" text-anchor="middle" font-size="10">
                  5
                </text>
                <circle cx="466.0" cy="126.0" r="2" fill="#106cbc"/>
                <text x="466.0" y="120.0" fill="rgba(127, 127, 127, .8)" text-anchor="end" font-size="10">
                  0
                </text>
                <text x="32.0" y="138.0" fill="rgba(127, 127, 127, .8)" text-anchor="end" font-size="10" transform="rotate(-45 32.0 138.0)">
                  May 30
                </text>
                <text x="98.8" y="138.0" fill="rgba(127, 127, 127, .8)" text-anchor="end" font-size="10" transform="rotate(-45 98.8 138.0)">
                  Jun 1
                </text>
                <text x="165.5" y="138.0" fill="rgba(127, 127, 127, .8)" text-anchor="end" font-size="10" transform="rotate(-45 165.5 138.0)">
                  Jun 3
                </text>
                <text x="232.3" y="138.0" fill="rgba(127, 127, 127, .8)" text-anchor="end" font-size="10" transform="rotate(-45 232.3 138.0)">
                  Jun 5
                </text>
                <text x="299.1" y="138.0" fill="rgba(127, 127, 127, .8)" text-anchor="end" font-size="10" transform="rotate(-45 299.1 138.0)">
                  Jun 7
                </text>
                <text x="365.8" y="138.0" fill="rgba(127, 127, 127, .8)" text-anchor="end" font-size="10" transform="rotate(-45 365.8 138.0)">
                  Jun 9
                </text>
                <text x="432.6" y="138.0" fill="rgba(127, 127, 127, .8)" text-anchor="end" font-size="10" transform="rotate(-45 432.6 138.0)">
                  Jun 11
                </text>
                <text x="466.0" y="138.0" fill="rgba(127, 127, 127, .8)" text-anchor="end" font-size="10" transform="rotate(-45 466.0 138.0)">
                  Jun 12
                </text>
              </svg>
            </section>
          </div>
        </section>
      </div>
      <div id="metrics-end"></div>
    </div>
  </foreignObject>
</svg>