<svg xmlns="http://www.w3.org/2000/svg" width="480" height="104" viewBox="0 0 480 104" class="">
  <defs>
    <style/>
  </defs>
  <style>
    svg{font-family:-apple-system,BlinkMacSystemFont,Segoe UI,Helvetica,Arial,sans-serif,Apple Color Emoji,Segoe UI Emoji;font-size:14px;color:#777}.repo-badges .badge.language::before{content:&#34;&#34;;display:inline-block;width:10px;height:10px;margin-right:5px;border-radius:50%;background-color:var(--lang-color,#959da5)}.gauge{stroke-linecap:round;fill:none}.gauge.info{color:#58a6ff}.gauge-base,.gauge-arc{stroke:currentColor;stroke-width:10}.gauge-base{stroke-opacity:.2}.gauge-arc{fill:none;stroke-dashoffset:0;animation-delay:250ms;animation:animation-gauge 1s ease forwards}.gauge text{fill:currentColor;font-size:40px;font-family:monospace;text-anchor:middle;font-weight:600}@keyframes animation-gauge{from{stroke-dasharray:0 329}}:root{--color-calendar-graph-day-bg:#ebedf0;--color-calendar-graph-day-border:rgba(27,31,35,0.06);--color-calendar-graph-day-L1-bg:#9be9a8;--color-calendar-graph-day-L2-bg:#40c463;--color-calendar-graph-day-L3-bg:#30a14e;--color-calendar-graph-day-L4-bg:#216e39;--color-calendar-halloween-graph-day-L1-bg:#ffee4a;--color-calendar-halloween-graph-day-L2-bg:#ffc501;--color-calendar-halloween-graph-day-L3-bg:#fe9600;--color-calendar-halloween-graph-day-L4-bg:#03001c;--color-calendar-winter-graph-day-L1-bg:#0a3069;--color-calendar-winter-graph-day-L2-bg:#0969da;--color-calendar-winter-graph-day-L3-bg:#54aeff;--color-calendar-winter-graph-day-L4-bg:#b6e3ff;--color-calendar-graph-day-L4-border:rgba(27,31,35,0.06);--color-calendar-graph-day-L3-border:rgba(27,31,35,0.06);--color-calendar-graph-day-L2-border:rgba(27,31,35,0.06);--color-calendar-graph-day-L1-border:rgba(27,31,35,0.06)}#metrics-end{width:100%}
  </style>
  <style/>
  <g transform="translate(0,0)" class="plugin-reactions" data-plugin="reactions">
    <g data-section="reactions">
      <svg width="100%" height="104" viewBox="0 0 480 104">
        <g transform="translate(13,9)" fill="#959da5">
          <svg viewBox="0 0 16 16" width="16" height="16" aria-hidden="true">
            <path fill-rule="evenodd" d="M1.5 2.75a.25.25 0 01.25-.25h8.5a.25.25 0 01.25.25v5.5a.25.25 0 01-.25.25h-3.5a.75.75 0 00-.53.22L3.5 11.44V9.25a.75.75 0 00-.75-.75h-1a.25.25 0 01-.25-.25v-5.5zM1.75 1A1.75 1.75 0 000 2.75v5.5C0 9.216.784 10 1.75 10H2v1.543a1.457 1.457 0 002.487 1.03L7.061 10h3.189A1.75 1.75 0 0012 8.25v-5.5A1.75 1.75 0 0010.25 1h-8.5zM14.5 4.75a.25.25 0 00-.25-.25h-.5a.75.75 0 110-1.5h.5c.966 0 1.75.784 1.75 1.75v5.5A1.75 1.75 0 0114.25 12H14v1.543a1.457 1.457 0 01-2.487 1.03L9.22 12.28a.75.75 0 111.06-1.06l2.22 2.22v-2.19a.75.75 0 01.75-.75h1a.25.25 0 00.25-.25v-5.5z"/>
          </svg>
        </g>
        <text x="37" y="22" font-size="16" fill="#0366d6">
          Overall users reactions from last 200 comments
        </text>
        <g data-reaction="HEART">
          <svg viewBox="0 0 120 120" width="50" height="50" x="5" y="32" class="gauge info">
            <circle class="gauge-base" r="53" cx="60" cy="60" fill="none" stroke="#58A6FF" stroke-width="10" stroke-opacity="0.2" stroke-linecap="round"/>
            <circle class="gauge-arc" transform="rotate(-90 60 60)" r="53" cx="60" cy="60" fill="none" stroke="#58A6FF" stroke-width="10" stroke-linecap="round" stroke-dasharray="61.209302 329"/>
            <text x="60" y="60" dominant-baseline="central" text-anchor="middle" font-size="40" fill="#58A6FF">
              ❤️
            </text>
          </svg>
          <text x="30" y="100" text-anchor="middle" font-size="14" fill="#777777" class="title nowrap">
            19
            <tspan font-size="11">
              %
            </tspan>
          </text>
        </g>
        <g data-reaction="THUMBS_UP">
          <svg viewBox="0 0 120 120" width="50" height="50" x="65" y="32" class="gauge info">
            <circle class="gauge-base" r="53" cx="60" cy="60" fill="none" stroke="#58A6FF" stroke-width="10" stroke-opacity="0.2" stroke-linecap="round"/>
            <circle class="gauge-arc" transform="rotate(-90 60 60)" r="53" cx="60" cy="60" fill="none" stroke="#58A6FF" stroke-width="10" stroke-linecap="round" stroke-dasharray="206.581395 329"/>
            <text x="60" y="60" dominant-baseline="central" text-anchor="middle" font-size="40" fill="#58A6FF">
              👍
            </text>
          </svg>
          <text x="90" y="100" text-anchor="middle" font-size="14" fill="#777777" class="title nowrap">
            63
            <tspan font-size="11">
              %
            </tspan>
          </text>
        </g>
        <g data-reaction="THUMBS_DOWN">
          <svg viewBox="0 0 120 120" width="50" height="50" x="125" y="32" class="gauge info">
            <circle class="gauge-base" r="53" cx="60" cy="60" fill="none" stroke="#58A6FF" stroke-width="10" stroke-opacity="0.2" stroke-linecap="round"/>
            <text x="60" y="60" dominant-baseline="central" text-anchor="middle" font-size="40" fill="#58A6FF">
              👎
            </text>
          </svg>
          <text x="150" y="100" text-anchor="middle" font-size="14" fill="#777777" class="title nowrap">
            0
            <tspan font-size="11">
              %
            </tspan>
          </text>
        </g>
        <g data-reaction="LAUGH">
          <svg viewBox="0 0 120 120" width="50" height="50" x="185" y="32" class="gauge info">
            <circle class="gauge-base" r="53" cx="60" cy="60" fill="none" stroke="#58A6FF" stroke-width="10" stroke-opacity="0.2" stroke-linecap="round"/>
            <circle class="gauge-arc" transform="rotate(-90 60 60)" r="53" cx="60" cy="60" fill="none" stroke="#58A6FF" stroke-width="10" stroke-linecap="round" stroke-dasharray="15.302326 329"/>
            <text x="60" y="60" dominant-baseline="central" text-anchor="middle" font-size="40" fill="#58A6FF">
              😄
            </text>
          </svg>
          <text x="210" y="100" text-anchor="middle" font-size="14" fill="#777777" class="title nowrap">
            5
            <tspan font-size="11">
              %
            </tspan>
          </text>
        </g>
        <g data-reaction="CONFUSED">
          <svg viewBox="0 0 120 120" width="50" height="50" x="245" y="32" class="gauge info">
            <circle class="gauge-base" r="53" cx="60" cy="60" fill="none" stroke="#58A6FF" stroke-width="10" stroke-opacity="0.2" stroke-linecap="round"/>
            <text x="60" y="60" dominant-baseline="central" text-anchor="middle" font-size="40" fill="#58A6FF">
              😕
            </text>
          </svg>
          <text x="270" y="100" text-anchor="middle" font-size="14" fill="#777777" class="title nowrap">
            0
            <tspan font-size="11">
              %
            </tspan>
          </text>
        </g>
        <g data-reaction="EYES">
          <svg viewBox="0 0 120 120" width="50" height="50" x="305" y="32" class="gauge info">
            <circle class="gauge-base" r="53" cx="60" cy="60" fill="none" stroke="#58A6FF" stroke-width="10" stroke-opacity="0.2" stroke-linecap="round"/>
            <circle class="gauge-arc" transform="rotate(-90 60 60)" r="53" cx="60" cy="60" fill="none" stroke="#58A6FF" stroke-width="10" stroke-linecap="round" stroke-dasharray="22.953488 329"/>
            <text x="60" y="60" dominant-baseline="central" text-anchor="middle" font-size="40" fill="#58A6FF">
              👀
            </text>
          </svg>
          <text x="330" y="100" text-anchor="middle" font-size="14" fill="#777777" class="title nowrap">
            7
            <tspan font-size="11">
              %
            </tspan>
          </text>
        </g>
        <g data-reaction="ROCKET">
          <svg viewBox="0 0 120 120" width="50" height="50" x="365" y="32" class="gauge info">
            <circle class="gauge-base" r="53" cx="60" cy="60" fill="none" stroke="#58A6FF" stroke-width="10" stroke-opacity="0.2" stroke-linecap="round"/>
            <text x="60" y="60" dominant-baseline="central" text-anchor="middle" font-size="40" fill="#58A6FF">
              🚀
            </text>
          </svg>
          <text x="390" y="100" text-anchor="middle" font-size="14" fill="#777777" class="title nowrap">
            0
            <tspan font-size="11">
              %
            </tspan>
          </text>
        </g>
        <g data-reaction="HOORAY">
          <svg viewBox="0 0 120 120" width="50" height="50" x="425" y="32" class="gauge info">
            <circle class="gauge-base" r="53" cx="60" cy="60" fill="none" stroke="#58A6FF" stroke-width="10" stroke-opacity="0.2" stroke-linecap="round"/>
            <circle class="gauge-arc" transform="rotate(-90 60 60)" r="53" cx="60" cy="60" fill="none" stroke="#58A6FF" stroke-width="10" stroke-linecap="round" stroke-dasharray="22.953488 329"/>
            <text x="60" y="60" dominant-baseline="central" text-anchor="middle" font-size="40" fill="#58A6FF">
              🎉
            </text>
          </svg>
          <text x="450" y="100" text-anchor="middle" font-size="14" fill="#777777" class="title nowrap">
            7
            <tspan font-size="11">
              %
            </tspan>
          </text>
        </g>
      </svg>
    </g>
  </g>
</svg>
